<svg width="20" height="20" fill="none" xmlns="http://www.w3.org/2000/svg"><path d="M1.617.024a2.935 2.935 0 0 0-.65.286 2.375 2.375 0 0 0-.854 1.04l-.096.233-.009 4.065C0 9.297.004 9.732.052 9.898c.197.681.793 1.275 1.498 1.491.192.059.534.061 8.45.061 7.916 0 8.258-.002 8.45-.061.705-.216 1.301-.81 1.498-1.491.048-.166.052-.601.044-4.25l-.009-4.065-.096-.233A2.264 2.264 0 0 0 18.65.113l-.233-.096L10.05.012C5.448.01 1.653.015 1.617.024m16.594 1.543c.068.046.164.142.215.213l.091.131v7.606l-.082.116a.654.654 0 0 1-.318.268c-.12.057-.213.064-.89.065l-.755.001-.014-1.259c-.011-1.029-.023-1.291-.067-1.437a2.271 2.271 0 0 0-1.56-1.527c-.203-.057-.466-.061-4.831-.061-4.38 0-4.628.003-4.833.062A2.245 2.245 0 0 0 3.61 7.268c-.045.15-.057.404-.068 1.44l-.014 1.259-.755-.001c-.677-.001-.77-.008-.89-.065a.654.654 0 0 1-.318-.268l-.082-.116-.009-3.728c-.005-2.441.003-3.771.025-3.853.039-.144.231-.356.381-.422.086-.037 1.462-.044 8.156-.038l8.052.007.123.084m-3.724 5.649a.689.689 0 0 1 .271.158c.204.212.209.243.209 1.475v1.118H5.033l.001-1.125c.001-1.245.006-1.281.224-1.486.205-.192.018-.185 4.728-.187 3.725-.002 4.358.005 4.501.047m-8.992 6.355a.85.85 0 0 0-.26.152c-.253.216-.25.201-.268 1.377l-.017 1.05-.091.195c-.22.469-.644.755-1.121.755-.428 0-.739.175-.856.483a.733.733 0 0 0 .351.927c.181.096.19.097.584.078.449-.021.687-.076 1.044-.24A2.75 2.75 0 0 0 6.434 16.2c.022-.169.033-.653.026-1.2-.011-.987-.016-1.02-.206-1.228-.165-.183-.506-.273-.759-.201m4.297-.006a.812.812 0 0 0-.413.31l-.096.142-.009 2.735-.008 2.735.077.148c.048.092.139.19.238.257.146.099.182.108.419.108s.273-.009.419-.108a.754.754 0 0 0 .237-.256l.077-.146v-2.699c0-2.436-.005-2.709-.055-2.813a.884.884 0 0 0-.352-.365.941.941 0 0 0-.534-.048m4.26.018a.747.747 0 0 0-.485.513c-.055.197-.042 1.878.016 2.214a2.726 2.726 0 0 0 1.556 2.038c.357.164.595.219 1.044.24.394.019.403.018.584-.078.246-.13.375-.321.394-.584.036-.503-.315-.826-.899-.826-.242 0-.503-.086-.691-.227a1.24 1.24 0 0 1-.43-.528l-.091-.195-.017-1.05c-.018-1.176-.015-1.161-.267-1.377a.71.71 0 0 0-.714-.14" fill-rule="evenodd" fill="#000"/></svg>