<svg width="20" height="20" fill="none" xmlns="http://www.w3.org/2000/svg"><path d="M6.367.986a.852.852 0 0 0-.212.141c-.187.178-.204.243-.222.873l-.016.583-1.134.019c-1.25.02-1.284.025-1.72.253A2.45 2.45 0 0 0 1.832 4.39c-.066.255-.067.371-.066 6.447.001 6.044.002 6.192.066 6.443.211.821.9 1.511 1.722 1.721.251.064.395.066 6.446.066s6.195-.002 6.446-.066c.822-.21 1.511-.9 1.722-1.721.064-.251.065-.399.066-6.443.001-6.076 0-6.192-.066-6.447a2.45 2.45 0 0 0-1.231-1.535c-.436-.228-.47-.233-1.72-.253l-1.134-.019L14.067 2c-.018-.63-.035-.695-.222-.873a.77.77 0 0 0-1.023 0c-.188.178-.204.243-.222.873l-.017.583H7.417L7.4 2c-.018-.63-.034-.695-.222-.873a.807.807 0 0 0-.811-.141m-.434 3.681c.018.63.035.695.222.873.344.327.94.23 1.173-.19.043-.079.059-.225.072-.683l.017-.584h5.166l.017.584c.018.63.034.695.222.873a.77.77 0 0 0 1.023 0c.187-.178.204-.243.222-.873l.016-.584h.967c.944.001.971.002 1.141.079.214.097.411.305.495.523.059.153.064.267.064 1.532v1.366H3.25v-1.35c0-1.537.005-1.571.238-1.831.274-.305.395-.33 1.545-.324l.884.005.016.584M16.75 12.95c0 3.723-.002 3.873-.064 4.031a1.005 1.005 0 0 1-.495.524l-.174.078h-6c-5.822 0-6.005-.002-6.165-.063a1.005 1.005 0 0 1-.523-.496l-.079-.174-.009-3.849c-.005-2.117-.002-3.868.007-3.892.014-.034 1.286-.041 6.759-.034l6.743.008v3.867" fill-rule="evenodd" fill="#000"/></svg>