<svg width="20" height="20" fill="none" xmlns="http://www.w3.org/2000/svg"><path d="M9.2 1.787c-1.106.133-1.896.361-2.817.811-.904.443-1.465.846-2.202 1.583-.737.737-1.14 1.298-1.583 2.202A7.53 7.53 0 0 0 2 8c-.185.743-.217 1.037-.217 2 0 .963.032 1.257.217 2 .144.58.31 1.028.598 1.617.443.904.846 1.465 1.583 2.202.737.737 1.298 1.14 2.202 1.583A7.53 7.53 0 0 0 8 18c.743.185 1.037.217 2 .217.963 0 1.257-.032 2-.217a8.54 8.54 0 0 0 3.05-1.477c.344-.259 1.214-1.129 1.473-1.473a8.489 8.489 0 0 0 1.633-3.8c.048-.29.061-.552.061-1.25 0-.963-.032-1.257-.217-2a8.54 8.54 0 0 0-1.477-3.05c-.259-.344-1.129-1.214-1.473-1.473-.915-.69-1.963-1.202-3-1.466-.684-.175-1.013-.214-1.9-.226a17.17 17.17 0 0 0-.95.002m1.767 1.535c2.108.296 3.982 1.614 4.996 3.516a6.8 6.8 0 0 1 .552 4.915c-.566 2.069-2.048 3.737-4.012 4.514a6.836 6.836 0 0 1-4.141.281 6.766 6.766 0 0 1-4.43-3.598A6.408 6.408 0 0 1 3.26 10a6.56 6.56 0 0 1 1.134-3.753 6.734 6.734 0 0 1 6.573-2.925M9.468 4.703a5.313 5.313 0 0 0-4.309 3.083c-.284.619-.404 1.099-.465 1.854l-.04.49.098.189a.84.84 0 0 0 .243.293c.134.097.165.105.419.105.25 0 .288-.009.416-.098.234-.162.308-.328.338-.763.072-1.023.416-1.824 1.079-2.518.671-.701 1.549-1.095 2.609-1.17.435-.03.601-.104.763-.338.089-.128.098-.166.098-.416 0-.254-.008-.285-.105-.419a.888.888 0 0 0-.279-.237c-.19-.1-.316-.108-.865-.055m.043 2.511c-1.114.213-1.954.986-2.249 2.069-.102.377-.103 1.053-.001 1.434a2.908 2.908 0 0 0 2.022 2.022c.378.101 1.056.101 1.434 0a2.914 2.914 0 0 0 2.022-2.022c.101-.378.101-1.056 0-1.434-.259-.967-1.069-1.775-2.022-2.019-.344-.087-.892-.11-1.206-.05m.835 1.503c.465.121.858.537.957 1.013.19.918-.655 1.763-1.573 1.573-.748-.155-1.226-.945-1.01-1.669a1.337 1.337 0 0 1 1.626-.917" fill-rule="evenodd" fill="#000"/></svg>