<svg width="20" height="20" fill="none" xmlns="http://www.w3.org/2000/svg"><path d="M4.983 1.267c-.65.13-1.192.625-1.425 1.3l-.075.216-.009 6.45c-.006 4.181.002 6.57.024 6.789.018.187.064.418.1.514.146.383.511.807.849.984.166.087.18.103.195.232.039.349.326.729.683.904.191.094.196.094.95.105.86.012.995-.011 1.274-.208.216-.154.368-.351.455-.591l.072-.195h3.856l.022.091c.076.315.365.658.679.806.182.085.19.086 1.017.086s.835-.001 1.017-.086c.349-.164.606-.49.684-.863.036-.176.045-.187.235-.298.399-.232.726-.652.869-1.12.059-.191.062-.489.062-6.866 0-5.539-.008-6.698-.046-6.85-.165-.662-.782-1.264-1.431-1.397-.209-.043-9.841-.046-10.057-.003m9.999 1.379a.742.742 0 0 1 .189.239c.06.136.062.249.054 2.404l-.008 2.261H4.783V2.945l.092-.138a.725.725 0 0 1 .217-.205c.123-.065.193-.066 4.944-.059l4.819.007.127.096m-8.799.85a.613.613 0 0 0-.331.345c-.044.105-.052.334-.052 1.514 0 1.354.002 1.395.071 1.538a.61.61 0 0 0 .571.34.786.786 0 0 0 .288-.048.793.793 0 0 0 .335-.409c.046-.169.047-2.715 0-2.883-.101-.365-.531-.558-.882-.397m9.034 8.956v3.603l-.09.135a.648.648 0 0 1-.235.206l-.146.071h-4.741c-3.908 0-4.759-.008-4.848-.045a.664.664 0 0 1-.354-.406c-.04-.161-.054-7.121-.014-7.161.012-.012 2.364-.018 5.225-.013l5.203.008v3.602M6.285 9.004a.64.64 0 0 0-.421.342c-.058.127-.063.241-.063 1.537 0 1.287.005 1.411.062 1.535.214.471.864.505 1.141.059l.079-.127v-2.9l-.088-.15a.647.647 0 0 0-.71-.296" fill-rule="evenodd" fill="#000"/></svg>