<svg width="20" height="20" fill="none" xmlns="http://www.w3.org/2000/svg"><path d="M11.667 1.082c-1.151.339-2.451 1.211-3.323 2.231a7.296 7.296 0 0 0-1.767 4.47c-.038.984.106 1.796.523 2.933.086.235.074.375-.047.532-.168.222-.492.287-.766.154-.158-.077-.404-.371-.651-.777-.704-1.159-.824-2.721-.306-3.99.056-.136.097-.253.091-.258-.028-.029-.547.458-.798.747-1.228 1.418-1.823 3.369-1.558 5.108.159 1.044.633 2.252 1.156 2.946a7.108 7.108 0 0 0 3.868 2.574c.588.151 1.063.212 1.828.237 3.034.098 5.449-1.161 6.533-3.406.209-.432.385-.969.471-1.433.092-.492.084-1.442-.015-1.905-.159-.745-.388-1.253-.916-2.039-.494-.735-.938-1.16-1.997-1.91-.763-.54-.99-.722-1.316-1.054-1.248-1.265-1.603-3.315-.856-4.94.062-.136.11-.258.105-.271-.005-.012-.122.011-.259.051m-1.006 7.693c.174.315.419.662.643.907.149.163.999.911 1.282 1.128.139.107.481.558.597.789.189.375.261.72.24 1.151a2.565 2.565 0 0 1-.308 1.151c-.344.666-.871 1.09-1.668 1.346-.695.222-1.318.178-2.028-.143-.29-.132-.883-.539-.885-.608 0-.012.043-.03.097-.041.209-.041.644-.233.876-.385a2.687 2.687 0 0 0 1.037-1.281c.098-.256.104-.299.103-.706-.002-.389-.014-.479-.123-.89-.2-.753-.238-.995-.235-1.51.001-.361.017-.523.07-.716.075-.275.131-.434.154-.434.008 0 .074.109.148.242" fill="#101828" fill-rule="evenodd"/></svg>