<svg width="24" height="24" fill="none" xmlns="http://www.w3.org/2000/svg"><path d="M6.54 1.882a6.155 6.155 0 0 0-2.44.679A6.21 6.21 0 0 0 2.403 3.76C1.348 4.804.708 6.06.476 7.54c-.065.412-.065 1.508 0 1.92a6.767 6.767 0 0 0 1.298 3.08c.3.403 9.361 9.488 9.645 9.672.189.121.219.128.581.128s.392-.007.581-.128c.284-.184 9.345-9.269 9.645-9.672a6.793 6.793 0 0 0 1.299-3.08c.066-.412.065-1.553-.001-1.94-.383-2.247-1.666-3.993-3.664-4.991-.908-.453-1.834-.66-2.94-.657-1.762.005-3.326.64-4.59 1.863l-.33.319-.33-.319a6.59 6.59 0 0 0-5.13-1.853m1.62 2.416c.905.251 1.366.55 2.38 1.543.418.409.832.788.92.841.14.086.208.098.54.098.332 0 .4-.012.54-.097.088-.054.502-.433.92-.843 1.017-.998 1.471-1.29 2.4-1.548.368-.102.457-.111 1.1-.11.74 0 .881.023 1.5.243 1.009.359 1.901 1.166 2.382 2.155.608 1.249.608 2.591 0 3.84-.107.22-.289.526-.404.68-.115.154-2.061 2.134-4.324 4.4L12 19.62 7.886 15.5c-2.263-2.266-4.209-4.246-4.324-4.4a5.133 5.133 0 0 1-.404-.68 4.289 4.289 0 0 1 0-3.84c.567-1.164 1.601-1.989 2.902-2.315.375-.094.441-.099 1.1-.085.52.011.681.03 1 .118" fill-rule="evenodd" fill="#000"/></svg>