<svg width="24" height="24" fill="none" xmlns="http://www.w3.org/2000/svg"><path d="M6.06 1.94C3.406 2.362 1.261 4.307.626 6.864A6.113 6.113 0 0 0 .431 8.5c0 1.466.416 2.744 1.282 3.94.28.386 9.558 9.688 9.787 9.812.23.125.771.125 1 0 .228-.123 9.461-9.38 9.767-9.792.878-1.18 1.299-2.465 1.299-3.96 0-1.078-.219-2.039-.676-2.96-.655-1.321-1.875-2.492-3.21-3.081a6.319 6.319 0 0 0-2.73-.578 6.485 6.485 0 0 0-3.45.951c-.347.207-.667.454-1.109.858l-.389.355-.439-.398c-1.046-.95-2.153-1.484-3.533-1.705-.468-.075-1.506-.076-1.97-.002" fill="#E44848" fill-rule="evenodd"/></svg>