<svg width="20" height="20" fill="none" xmlns="http://www.w3.org/2000/svg"><path d="M2.016 3.493a1.639 1.639 0 0 0-.942.836L.95 4.58v11.673l.125.253c.165.334.419.588.752.752l.253.125h15.84l.253-.125c.333-.164.587-.418.752-.752l.125-.253V4.58l-.125-.253a1.631 1.631 0 0 0-.752-.752l-.253-.125-7.868-.007c-7.398-.007-7.879-.004-8.036.05m4.734 6.924v5.5l-2.122.008c-1.897.008-2.128.003-2.175-.044-.048-.047-.053-.578-.053-5.464 0-4.887.005-5.417.053-5.465.047-.047.278-.052 2.175-.044l2.122.009v5.5m10.798-5.465c.047.048.052.589.052 5.465 0 4.88-.005 5.417-.052 5.464-.048.047-.506.052-4.675.044l-4.623-.008-.009-5.467c-.004-3.007-.001-5.485.008-5.508.012-.033.969-.042 4.631-.042 4.151 0 4.621.005 4.668.052m-2.473 1.05a.82.82 0 0 0-.236.193c-.108.138-4.913 6.948-5.051 7.158a.713.713 0 0 0 .107.914c.312.303.728.311 1.023.022.126-.124 4.961-6.947 5.153-7.273.061-.103.079-.182.079-.349a.71.71 0 0 0-.319-.619c-.193-.133-.543-.155-.756-.046M4.338 6.37c-.163.049-.425.325-.471.495-.025.093-.034.471-.027 1.134l.01.995.101.144c.055.079.165.189.244.244.129.091.17.101.388.101s.26-.01.388-.101c.079-.055.189-.165.245-.244l.101-.144V6.839l-.101-.144c-.157-.222-.336-.331-.569-.347a1.089 1.089 0 0 0-.309.022m-.133 4.149c-.305.154-.456.432-.432.797a.772.772 0 0 0 .375.633c.147.091.191.101.435.101.245 0 .289-.01.435-.101a.842.842 0 0 0 .264-.264c.091-.147.101-.191.101-.435s-.01-.288-.101-.435c-.148-.241-.361-.361-.662-.375-.204-.01-.261.001-.415.079m0 2.5c-.305.154-.456.432-.432.797a.772.772 0 0 0 .375.633c.147.091.191.101.435.101.245 0 .289-.01.435-.101a.842.842 0 0 0 .264-.264c.091-.147.101-.191.101-.435s-.01-.288-.101-.435c-.148-.241-.361-.361-.662-.375-.204-.01-.261.001-.415.079" fill-rule="evenodd" fill="#000"/></svg>