<svg width="20" height="20" fill="none" xmlns="http://www.w3.org/2000/svg"><path d="M1.174 2.901c-.476.069-.941.485-1.098.982-.061.196-.061 12.038 0 12.234.162.513.618.911 1.128.984.306.045 17.316.042 17.596-.002a1.415 1.415 0 0 0 1.042-.788l.108-.228V3.917l-.108-.228a1.421 1.421 0 0 0-1.046-.79c-.258-.038-17.366-.036-17.622.002M18.583 10v5.717H1.417l-.009-5.684c-.005-3.126-.001-5.702.007-5.725.013-.033 1.749-.04 8.592-.033l8.576.008V10M3.973 5.769c-.523.104-.983.597-1.074 1.151-.043.262-.043 5.898 0 6.16.094.572.555 1.052 1.108 1.154.119.022 1.633.031 4.33.025l4.146-.009.241-.113c.443-.208.751-.623.812-1.098.037-.29.037-5.788 0-6.078a1.422 1.422 0 0 0-.812-1.098l-.241-.113L8.3 5.745c-2.301-.003-4.248.008-4.327.024m11.644.684a3.46 3.46 0 0 1-.143.032c-.107.023-.342.245-.396.372-.105.252-.031.621.161.8.158.148.293.176.828.176.548 0 .67-.028.844-.193.145-.138.2-.27.203-.49a.663.663 0 0 0-.337-.606c-.146-.085-.181-.091-.624-.099a5.31 5.31 0 0 0-.536.008M12.167 10v2.867h-7.9V7.133h7.9V10m3.239-.614c-.266.134-.356.289-.356.614 0 .329.091.483.363.616.179.088.194.09.716.079.531-.012.532-.012.677-.113a.7.7 0 0 0 0-1.164l-.145-.101-.539-.011c-.528-.01-.542-.008-.716.08" fill-rule="evenodd" fill="#000"/></svg>