<svg width="20" height="20" fill="none" xmlns="http://www.w3.org/2000/svg"><path d="m8.717 2.728-3.6 1.695-.347.039c-1.19.134-1.943.443-2.563 1.05-.642.63-.94 1.373-1.1 2.751-.05.423-.057.871-.057 3.404s.007 2.98.057 3.403c.159 1.364.44 2.078 1.072 2.723.63.642 1.373.94 2.751 1.1.436.051.968.057 5.07.057s4.634-.006 5.07-.057c1.378-.16 2.121-.458 2.751-1.1.632-.645.913-1.359 1.072-2.723.05-.423.057-.87.057-3.403s-.007-2.981-.057-3.404c-.16-1.378-.458-2.121-1.1-2.751-.636-.623-1.35-.908-2.673-1.068-.36-.043-.991-.055-3.599-.068-1.774-.008-3.15-.027-3.133-.043.016-.016 1.031-.501 2.256-1.078 1.225-.576 2.257-1.076 2.295-1.11a.679.679 0 0 0 .194-.479c0-.374-.262-.633-.64-.632-.163 0-.449.128-3.776 1.694m4.916 2.938c1.105.033 1.513.069 2 .173 1.262.271 1.752.876 1.953 2.411.086.651.131 3.209.087 4.942-.023.901-.058 1.675-.087 1.891-.201 1.535-.691 2.14-1.953 2.411-.49.105-.897.14-2.016.173-1.335.039-5.899.039-7.234 0-1.119-.033-1.526-.068-2.016-.173-1.28-.275-1.788-.924-1.968-2.511-.101-.894-.122-5.001-.032-6.223.091-1.233.293-1.857.748-2.311.542-.541 1.284-.728 3.102-.781 1.238-.035 6.248-.037 7.416-.002M5.277 6.917c-.783.17-1.528.921-1.695 1.708a3.222 3.222 0 0 0 0 1.082c.169.797.917 1.543 1.716 1.712.328.069 9.083.07 9.404.001.802-.173 1.547-.916 1.716-1.713a3.216 3.216 0 0 0 0-1.081c-.169-.797-.916-1.542-1.716-1.712-.318-.067-9.115-.065-9.425.003m9.29 1.32a1.014 1.014 0 0 1 0 1.858c-.176.082-.209.086-.8.087l-.617.001-.017-.419c-.015-.377-.025-.432-.1-.542-.099-.146-.362-.289-.533-.289-.171 0-.434.143-.533.289-.075.11-.085.165-.1.542l-.017.419H5.617l-.184-.087c-.659-.313-.817-1.142-.313-1.641a1 1 0 0 1 .544-.288c.084-.015 2.08-.024 4.436-.022l4.283.005.184.087m-8.713 4.068c-.368.071-.81.345-1.077.668-.289.351-.41.702-.41 1.194 0 .484.122.846.397 1.176.795.957 2.179.96 2.967.005.27-.327.402-.714.402-1.181 0-.469-.13-.856-.397-1.177a1.935 1.935 0 0 0-1.882-.685m4.696 1.284a.612.612 0 0 0-.35.578c0 .26.117.456.34.57.118.06.232.063 2.377.063 2.144 0 2.258-.003 2.376-.063a.601.601 0 0 0 .34-.57.602.602 0 0 0-.34-.571c-.118-.06-.23-.063-2.383-.061-1.997.001-2.272.007-2.36.054m-4.094.013a.623.623 0 0 1 .385.565c0 .176-.06.31-.196.439-.374.353-.986.08-.986-.439 0-.177.06-.31.196-.44a.58.58 0 0 1 .601-.125" fill-rule="evenodd" fill="#000"/></svg>