<svg width="20" height="20" fill="none" xmlns="http://www.w3.org/2000/svg"><path d="M4.583 2.549c-.76.167-1.423.748-1.959 1.718-.393.71-.717 1.832-.88 3.054-.072.54-.083 2.182-.018 2.712.119.971.341 1.897.628 2.61.463 1.153 1.188 1.971 1.993 2.248.239.082.316.092.67.09.362-.002.425-.012.67-.104.316-.119.587-.286.816-.5l.164-.153.001 1.296c.001.996.012 1.326.046 1.422a.83.83 0 0 0 .712.548c.18.017.276-.01 1.384-.377l1.19-.395 1.178.391c.648.215 1.226.391 1.285.391.058 0 .653-.091 1.321-.203L15 17.094l1.239.207c.884.147 1.282.201 1.389.186a.838.838 0 0 0 .669-.594c.03-.109.037-1.234.027-4.676-.011-4.001-.019-4.579-.067-4.917-.137-.951-.324-1.713-.58-2.367-.285-.727-.607-1.237-1.074-1.703-.273-.271-.369-.343-.637-.476-.548-.27-.146-.253-5.983-.251-4.171.002-5.239.011-5.4.046m.623 1.688c.499.254 1.011 1.268 1.26 2.493.45 2.219.085 4.914-.831 6.138-.341.455-.633.558-.947.332-.571-.411-1.071-1.644-1.275-3.15-.083-.606-.083-1.994 0-2.6.218-1.606.768-2.893 1.373-3.212.167-.088.251-.088.42-.001m10 0c.495.252 1.011 1.269 1.259 2.48.183.892.179.802.193 5.025.012 3.764.01 3.925-.048 3.924-.033 0-.368-.052-.743-.116a9.752 9.752 0 0 0-.85-.117c-.092 0-.678.084-1.303.187l-1.135.189-1.217-.405c-.798-.265-1.266-.404-1.36-.404-.111 0-1.172.321-1.625.491-.031.011-.043-.872-.053-3.896-.011-3.455-.019-3.958-.069-4.308-.165-1.151-.411-2.044-.769-2.787a50.376 50.376 0 0 1-.147-.308c-.006-.014 1.731-.025 3.86-.025 3.864 0 3.871 0 4.007.07M4.697 7.208c-.175.135-.336.419-.436.774-.11.389-.11 1.149 0 1.533.344 1.199 1.134 1.199 1.478 0 .11-.384.11-1.144 0-1.533C5.579 7.418 5.313 7.1 5 7.1c-.131 0-.188.02-.303.108" fill="#101828" fill-rule="evenodd"/></svg>