<svg width="20" height="20" fill="none" xmlns="http://www.w3.org/2000/svg"><path d="M9.745 1.466a1.41 1.41 0 0 0-.562.29c-.055.052-.304.341-.553.644-1.558 1.892-2.827 3.797-3.708 5.567-.652 1.31-.994 2.286-1.21 3.45-.049.268-.061.495-.06 1.166.001.918.045 1.271.246 1.989.616 2.193 2.242 3.685 4.514 4.144.581.117.927.15 1.588.15.321 0 .718-.015.883-.034 3.103-.353 5.114-2.381 5.454-5.5.049-.452.021-1.52-.051-1.915-.206-1.137-.56-2.147-1.208-3.45-.883-1.775-2.151-3.677-3.712-5.571a10.689 10.689 0 0 0-.589-.676c-.253-.213-.703-.323-1.032-.254m.517 1.94c1.987 2.439 3.541 4.998 4.195 6.911.258.753.372 1.333.4 2.021.049 1.233-.255 2.387-.847 3.22a4.479 4.479 0 0 1-1.377 1.218c-1.087.6-2.826.768-4.216.407-1.167-.304-2.093-.996-2.653-1.984-.519-.915-.738-2.207-.58-3.413.215-1.64 1.244-3.81 2.998-6.319.564-.808 1.761-2.363 1.818-2.362.009 0 .127.136.262.301m2.839 8.751c-.273.143-.369.299-.409.665-.054.487-.091.635-.233.918a1.864 1.864 0 0 1-.372.51c-.391.395-.759.563-1.35.619-.421.04-.59.122-.738.355a.71.71 0 0 0 .061.879c.167.194.333.262.644.263 1.826.005 3.441-1.592 3.472-3.433.005-.265-.006-.338-.065-.45a.734.734 0 0 0-.625-.407.538.538 0 0 0-.385.081" fill-rule="evenodd" fill="#000"/></svg>